<?xml version="1.0"?>
<svg xmlns:rdf="http://www.w3.org/1999/02/22-rdf-syntax-ns#" xmlns="http://www.w3.org/2000/svg" xmlns:cc="http://web.resource.org/cc/" xmlns:dc="http://purl.org/dc/elements/1.1/" xmlns:sodipodi="http://inkscape.sourceforge.net/DTD/sodipodi-0.dtd" xmlns:svg="http://www.w3.org/2000/svg" id="svg1384" viewBox="0 0 145 310" sodipodi:version="0.32" version="1.0" sodipodi:docname="Adele Schopenhauer Scherenschnitt.svg" sodipodi:docbase="C:\foo\wikipedia\transfer">
  <sodipodi:namedview id="base" bordercolor="#666666" borderopacity="1.0" pagecolor="#ffffff"/>
  <path id="path1393" d="m7.0277 300.9c0.0152-2.42 0.6777-14.52 1.4723-26.9s1.4571-27.1 1.4723-32.73c0.026-9.59-0.2159-10.84-3.8789-20-9.1438-22.87-7.6124-31.51 8.5176-48.06 4.46-4.58 8.723-9.53 9.472-11.02 0.749-1.48 2.881-4.43 4.737-6.55 4.885-5.59 5.901-8.84 6.63-21.19 0.608-10.29 0.506-11.24-1.471-13.75-1.332-1.69-3.122-2.72-4.802-2.75-1.472-0.02-4.252-0.82-6.177-1.76-3.45-1.68-3.502-1.8-3.617-8.29-0.064-3.62-0.863-8.828-1.774-11.573-1.537-4.628-2.002-5.1-6.384-6.481-3.3597-1.059-4.6437-1.958-4.4435-3.114 0.3003-1.733 6.2065-10.907 9.1635-14.232 3.236-3.639 4.19-8.24 2.533-12.208-2.768-6.623-1.206-17.653 3.42-24.149 1.399-1.964 1.767-3.232 1.065-3.666-1.31-0.809-0.319-9.93 1.374-12.653 0.64-1.03 2.43-2.424 3.979-3.098 1.8-0.784 3.018-2.219 3.375-3.977 0.761-3.7427 10.7-10.146 13.457-8.6697 1.019 0.5451 1.859 1.3127 1.867 1.7059 0.009 0.3931 0.431 1.3719 0.939 2.175 0.791 1.2498 1.221 1.1916 2.984-0.404 3.03-2.7425 14.456-3.415 17.116-1.0075 1.07 0.9687 1.946 2.7746 1.946 4.0133 0 1.851 0.936 2.532 5.25 3.822 8.436 2.522 8.907 2.473 10.141-1.06 0.887-2.539 9.753-12.324 11.167-12.324 0.191 0 1.382 0.4189 2.645 0.9308 1.267 0.5119 3.537 1.1965 5.057 1.5214 4.11 0.8804 8.74 7.7788 8.74 13.031 0 5.32 0.79 6.063 3.62 3.404 2.73-2.565 4.73-2.328 15.88 1.878 12.77 4.817 13.5 5.142 13.5 5.993 0 0.445-2.92 4.777-6.5 9.628-6.78 9.202-7.49 10.959-5 12.355 1.46 0.817 5.5 10.805 5.5 13.599 0 0.765-0.9 2.534-2 3.933-1.34 1.698-2 4.057-2 7.1 0 3.71-0.42 4.775-2.25 5.734-1.24 0.647-4.2 2.958-6.59 5.135-3.99 3.649-4.66 3.91-8.5 3.339-4.04-0.602-4.39-0.419-12.15 6.4-4.39 3.86-8.44 7.039-8.997 7.059s-2.255 1.05-3.773 2.29c-9.018 7.38-4.015 35.66 8.97 50.68 4.86 5.63 10.56 13.71 11.97 16.99 0.6 1.38 2.87 4.52 5.05 7 5.5 6.24 7.53 13.05 7.89 26.49 0.16 6.06 0.59 19.33 0.95 29.51 0.59 16.67-0.37 34.71-2.1 39.21-0.44 1.16-1.68 1.22-7.25 0.31-3.96-0.64-11.45-0.84-18.22-0.47-9.981 0.53-12.359 1.02-18 3.67-3.575 1.67-8.05 4.22-9.944 5.66-4.178 3.18-5.709 3.27-7.963 0.49-2.025-2.5-2.259-2.41-14.047 5.38-13.986 9.24-26.817 14.56-37.296 15.46l-6.75 0.58 0.0277-4.39z"/>
  <metadata>
    <rdf:RDF>
      <cc:Work>
        <dc:format>image/svg+xml</dc:format>
        <dc:type rdf:resource="http://purl.org/dc/dcmitype/StillImage"/>
        <cc:license rdf:resource="http://creativecommons.org/licenses/publicdomain/"/>
        <dc:publisher>
          <cc:Agent rdf:about="http://openclipart.org/">
            <dc:title>Openclipart</dc:title>
          </cc:Agent>
        </dc:publisher>
        <dc:title>Adele Schopenhauer</dc:title>
        <dc:date>2006-11-03T05:42:05</dc:date>
        <dc:description>Adele Schopenhauer, self portrait.&#xD;\n&#xD;\nFrom http://commons.wikimedia.org/wiki/Image:Adele_Schopenhauer_Scherenschnitt.svg</dc:description>
        <dc:source>http://openclipart.org/detail/1199/adele-schopenhauer-by-liftarn</dc:source>
        <dc:creator>
          <cc:Agent>
            <dc:title>liftarn</dc:title>
          </cc:Agent>
        </dc:creator>
        <dc:subject>
          <rdf:Bag>
            <rdf:li>clip art</rdf:li>
            <rdf:li>clipart</rdf:li>
            <rdf:li>externalsource</rdf:li>
            <rdf:li>historical</rdf:li>
            <rdf:li>image</rdf:li>
            <rdf:li>lady</rdf:li>
            <rdf:li>media</rdf:li>
            <rdf:li>people</rdf:li>
            <rdf:li>png</rdf:li>
            <rdf:li>public domain</rdf:li>
            <rdf:li>silhouette</rdf:li>
            <rdf:li>svg</rdf:li>
            <rdf:li>wikimedia commons</rdf:li>
            <rdf:li>woman</rdf:li>
          </rdf:Bag>
        </dc:subject>
      </cc:Work>
      <cc:License rdf:about="http://creativecommons.org/licenses/publicdomain/">
        <cc:permits rdf:resource="http://creativecommons.org/ns#Reproduction"/>
        <cc:permits rdf:resource="http://creativecommons.org/ns#Distribution"/>
        <cc:permits rdf:resource="http://creativecommons.org/ns#DerivativeWorks"/>
      </cc:License>
    </rdf:RDF>
  </metadata>
</svg>
